<svg xmlns="http://www.w3.org/2000/svg" width="640" height="420" viewBox="0 0 640 420" role="img" aria-labelledby="title desc">
  <title id="title">Bilayer placeholder</title>
  <desc id="desc">Placeholder artwork for the bilayer system type.</desc>
  <rect width="640" height="420" fill="#f6f0e8"/>
  <rect x="24" y="24" width="592" height="372" rx="24" fill="#f0e5d6" stroke="#7a5c45" stroke-width="4"/>
  <line x1="90" y1="155" x2="550" y2="155" stroke="#7a5c45" stroke-width="10"/>
  <line x1="90" y1="245" x2="550" y2="245" stroke="#7a5c45" stroke-width="10"/>
  <circle cx="120" cy="155" r="18" fill="#b86b3b"/>
  <circle cx="180" cy="155" r="18" fill="#b86b3b"/>
  <circle cx="240" cy="155" r="18" fill="#b86b3b"/>
  <circle cx="300" cy="155" r="18" fill="#b86b3b"/>
  <circle cx="360" cy="155" r="18" fill="#b86b3b"/>
  <circle cx="420" cy="155" r="18" fill="#b86b3b"/>
  <circle cx="480" cy="155" r="18" fill="#b86b3b"/>
  <circle cx="520" cy="155" r="18" fill="#b86b3b"/>
  <circle cx="120" cy="245" r="18" fill="#b86b3b"/>
  <circle cx="180" cy="245" r="18" fill="#b86b3b"/>
  <circle cx="240" cy="245" r="18" fill="#b86b3b"/>
  <circle cx="300" cy="245" r="18" fill="#b86b3b"/>
  <circle cx="360" cy="245" r="18" fill="#b86b3b"/>
  <circle cx="420" cy="245" r="18" fill="#b86b3b"/>
  <circle cx="480" cy="245" r="18" fill="#b86b3b"/>
  <circle cx="520" cy="245" r="18" fill="#b86b3b"/>
  <text x="320" y="330" text-anchor="middle" font-family="Arial, Helvetica, sans-serif" font-size="38" fill="#49382b">Bilayer</text>
  <text x="320" y="365" text-anchor="middle" font-family="Arial, Helvetica, sans-serif" font-size="18" fill="#6e5a4a">Placeholder image</text>
</svg>
